<svg width="14" height="14" viewBox="0 0 14 14" fill="none" xmlns="http://www.w3.org/2000/svg">
<path d="M7 1C8.30914 1 9.41948 1.83962 9.8291 3.00879C9.88547 3.00401 9.9424 3 10 3C11.1045 3 12 3.89557 12 5C12 6.03528 11.2134 6.88664 10.2051 6.98926L10 7H4L3.7959 6.98926C2.78722 6.88701 2 6.03556 2 5C2.00004 3.89557 2.89546 3 4 3C4.0576 3 4.11453 3.00402 4.1709 3.00879C4.58042 1.83961 5.69092 1.00014 7 1Z" fill="#FFFEAB"/>
<path d="M7.5 9L6 11H9L7.5 13" stroke="#FFFEAB" stroke-linecap="round"/>
</svg>
